<svg xmlns="http://www.w3.org/2000/svg" width="640" height="420" viewBox="0 0 640 420" fill="none">
  <defs>
    <linearGradient id="hhBg" x1="0" y1="0" x2="640" y2="420" gradientUnits="userSpaceOnUse">
      <stop stop-color="#EEF2FF"/>
      <stop offset="0.45" stop-color="#E0E7FF"/>
      <stop offset="1" stop-color="#C7D2FE"/>
    </linearGradient>
    <filter id="hhBlur" x="-20" y="-20" width="680" height="460" filterUnits="userSpaceOnUse">
      <feGaussianBlur stdDeviation="24"/>
    </filter>
  </defs>
  <rect width="640" height="420" rx="28" fill="url(#hhBg)"/>
  <circle cx="520" cy="90" r="120" fill="#6366F1" fill-opacity="0.12" filter="url(#hhBlur)"/>
  <circle cx="120" cy="340" r="100" fill="#4F46E5" fill-opacity="0.1" filter="url(#hhBlur)"/>

  <g stroke="#4338CA" stroke-width="3" stroke-linecap="round" opacity="0.85">
    <path d="M80 280 L200 200 L320 240 L440 160 L540 200"/>
    <path d="M200 200 L200 120"/>
    <path d="M320 240 L320 320"/>
    <path d="M440 160 L440 80"/>
  </g>
  <circle cx="80" cy="280" r="10" fill="#4F46E5"/>
  <circle cx="200" cy="120" r="10" fill="#4F46E5"/>
  <circle cx="200" cy="200" r="8" fill="#6366F1"/>
  <circle cx="320" cy="240" r="8" fill="#6366F1"/>
  <circle cx="320" cy="320" r="10" fill="#4F46E5"/>
  <circle cx="440" cy="160" r="8" fill="#6366F1"/>
  <circle cx="440" cy="80" r="10" fill="#4F46E5"/>
  <circle cx="540" cy="200" r="10" fill="#4F46E5"/>

  <text x="48" y="56" fill="#1E1B4B" font-family="Inter, Segoe UI, Arial, sans-serif" font-size="22" font-weight="700">
    Phylogenetic workflows
  </text>
  <text x="48" y="86" fill="#4338CA" font-family="Inter, Segoe UI, Arial, sans-serif" font-size="14" font-weight="500" opacity="0.85">
    UPGMA ¯ Neighbor Joining ¯ Parsimony
  </text>
</svg>
